<?xml version="1.0" encoding="UTF-8" standalone="no"?>
<!DOCTYPE svg PUBLIC "-//W3C//DTD SVG 1.1//EN"
 "http://www.w3.org/Graphics/SVG/1.1/DTD/svg11.dtd">
<!-- Generated by graphviz version 2.40.1 (20161225.0304)
 -->
<!-- Title: state transitions Pages: 1 -->
<svg width="497pt" height="588pt"
 viewBox="0.00 0.00 497.00 588.00" xmlns="http://www.w3.org/2000/svg" xmlns:xlink="http://www.w3.org/1999/xlink">
<g id="graph0" class="graph" transform="scale(1 1) rotate(0) translate(4 584)">
<title>state transitions</title>
<polygon fill="#ffffff" stroke="transparent" points="-4,4 -4,-584 493,-584 493,4 -4,4"/>
<g id="clust1" class="cluster state regular">
<title>cluster_cstate</title>
<path fill="none" stroke="#000000" stroke-width="2" d="M20,-8C20,-8 469,-8 469,-8 475,-8 481,-14 481,-20 481,-20 481,-560 481,-560 481,-566 475,-572 469,-572 469,-572 20,-572 20,-572 14,-572 8,-566 8,-560 8,-560 8,-20 8,-20 8,-14 14,-8 20,-8"/>
<text text-anchor="start" x="228.4944" y="-553.2" font-family="Helvetica,sans-Serif" font-size="12.00" fill="#000000">cstate</text>
</g>
<!-- cstate -->
<!-- IDLE -->
<g id="node2" class="node state regular">
<title>IDLE</title>
<polygon fill="#ffffff" fill-opacity="0.003922" stroke="transparent" stroke-width="2" points="308,-534 252,-534 252,-498 308,-498 308,-534"/>
<text text-anchor="start" x="266.6644" y="-512.2" font-family="Helvetica,sans-Serif" font-size="12.00" fill="#000000">IDLE</text>
<path fill="none" stroke="#000000" stroke-width="2" d="M264.3333,-499C264.3333,-499 295.6667,-499 295.6667,-499 301.3333,-499 307,-504.6667 307,-510.3333 307,-510.3333 307,-521.6667 307,-521.6667 307,-527.3333 301.3333,-533 295.6667,-533 295.6667,-533 264.3333,-533 264.3333,-533 258.6667,-533 253,-527.3333 253,-521.6667 253,-521.6667 253,-510.3333 253,-510.3333 253,-504.6667 258.6667,-499 264.3333,-499"/>
</g>
<!-- START -->
<g id="node3" class="node state regular">
<title>START</title>
<polygon fill="#ffffff" fill-opacity="0.003922" stroke="transparent" stroke-width="2" points="247.5,-440 186.5,-440 186.5,-404 247.5,-404 247.5,-440"/>
<text text-anchor="start" x="197.835" y="-418.2" font-family="Helvetica,sans-Serif" font-size="12.00" fill="#000000">START</text>
<path fill="none" stroke="#000000" stroke-width="2" d="M198.8333,-405C198.8333,-405 235.1667,-405 235.1667,-405 240.8333,-405 246.5,-410.6667 246.5,-416.3333 246.5,-416.3333 246.5,-427.6667 246.5,-427.6667 246.5,-433.3333 240.8333,-439 235.1667,-439 235.1667,-439 198.8333,-439 198.8333,-439 193.1667,-439 187.5,-433.3333 187.5,-427.6667 187.5,-427.6667 187.5,-416.3333 187.5,-416.3333 187.5,-410.6667 193.1667,-405 198.8333,-405"/>
</g>
<!-- IDLE&#45;&gt;START -->
<g id="edge1" class="edge transition">
<title>IDLE&#45;&gt;START</title>
<path fill="none" stroke="#000000" d="M267.853,-497.8759C258.4402,-483.8314 245.2632,-464.1706 234.6813,-448.3816"/>
<polygon fill="#000000" stroke="#000000" points="237.5846,-446.4268 229.1097,-440.0685 231.7698,-450.324 237.5846,-446.4268"/>
<text text-anchor="start" x="256" y="-472" font-family="Helvetica,sans-Serif" font-size="10.00" fill="#000000">1 &#160;&#160;</text>
<text text-anchor="start" x="256" y="-460" font-family="Helvetica,sans-Serif" font-size="10.00" fill="#000000">i_frame_start_trig &#160;&#160;</text>
</g>
<!-- SHK_WR -->
<g id="node4" class="node state regular">
<title>SHK_WR</title>
<polygon fill="#ffffff" fill-opacity="0.003922" stroke="transparent" stroke-width="2" points="119.5,-358 46.5,-358 46.5,-322 119.5,-322 119.5,-358"/>
<text text-anchor="start" x="57.8356" y="-336.2" font-family="Helvetica,sans-Serif" font-size="12.00" fill="#000000">SHK_WR</text>
<path fill="none" stroke="#000000" stroke-width="2" d="M58.8333,-323C58.8333,-323 107.1667,-323 107.1667,-323 112.8333,-323 118.5,-328.6667 118.5,-334.3333 118.5,-334.3333 118.5,-345.6667 118.5,-345.6667 118.5,-351.3333 112.8333,-357 107.1667,-357 107.1667,-357 58.8333,-357 58.8333,-357 53.1667,-357 47.5,-351.3333 47.5,-345.6667 47.5,-345.6667 47.5,-334.3333 47.5,-334.3333 47.5,-328.6667 53.1667,-323 58.8333,-323"/>
</g>
<!-- START&#45;&gt;SHK_WR -->
<g id="edge3" class="edge transition">
<title>START&#45;&gt;SHK_WR</title>
<path fill="none" stroke="#000000" d="M186.3413,-406.6448C179.8909,-403.251 173.1728,-399.593 167,-396 150.1587,-386.1973 132.1022,-374.3468 117.0624,-364.0762"/>
<polygon fill="#000000" stroke="#000000" points="118.8087,-361.0291 108.5878,-358.2389 114.8379,-366.7939 118.8087,-361.0291"/>
<text text-anchor="start" x="151" y="-378" font-family="Helvetica,sans-Serif" font-size="10.00" fill="#000000">1 &#160;&#160;</text>
</g>
<!-- OVER -->
<g id="node7" class="node state regular">
<title>OVER</title>
<polygon fill="#ffffff" fill-opacity="0.003922" stroke="transparent" stroke-width="2" points="350,-52 294,-52 294,-16 350,-16 350,-52"/>
<text text-anchor="start" x="304.9984" y="-30.2" font-family="Helvetica,sans-Serif" font-size="12.00" fill="#000000">OVER</text>
<path fill="none" stroke="#000000" stroke-width="2" d="M306.3333,-17C306.3333,-17 337.6667,-17 337.6667,-17 343.3333,-17 349,-22.6667 349,-28.3333 349,-28.3333 349,-39.6667 349,-39.6667 349,-45.3333 343.3333,-51 337.6667,-51 337.6667,-51 306.3333,-51 306.3333,-51 300.6667,-51 295,-45.3333 295,-39.6667 295,-39.6667 295,-28.3333 295,-28.3333 295,-22.6667 300.6667,-17 306.3333,-17"/>
</g>
<!-- START&#45;&gt;OVER -->
<g id="edge2" class="edge transition">
<title>START&#45;&gt;OVER</title>
<path fill="none" stroke="#000000" d="M247.7813,-418.7378C303.1875,-412.4467 414,-397.7684 414,-381 414,-381 414,-381 414,-313.5 414,-293.5978 422.1519,-283.9374 409,-269 387.8959,-245.0308 363.1818,-273.0716 339.184,-252 323.2527,-238.0113 322,-228.7012 322,-207.5 322,-207.5 322,-207.5 322,-87 322,-78.9387 322,-70.1878 322,-62.1633"/>
<polygon fill="#000000" stroke="#000000" points="325.5001,-62.1518 322,-52.1519 318.5001,-62.1519 325.5001,-62.1518"/>
<text text-anchor="start" x="339" y="-237" font-family="Helvetica,sans-Serif" font-size="10.00" fill="#000000">r_frame_start_chose == 0 &#160;&#160;</text>
<text text-anchor="start" x="339" y="-225" font-family="Helvetica,sans-Serif" font-size="10.00" fill="#000000">1 &#160;&#160;</text>
</g>
<!-- DELAY -->
<g id="node5" class="node state regular">
<title>DELAY</title>
<polygon fill="#ffffff" fill-opacity="0.003922" stroke="transparent" stroke-width="2" points="77.5,-252 16.5,-252 16.5,-216 77.5,-216 77.5,-252"/>
<text text-anchor="start" x="27.829" y="-230.2" font-family="Helvetica,sans-Serif" font-size="12.00" fill="#000000">DELAY</text>
<path fill="none" stroke="#000000" stroke-width="2" d="M28.8333,-217C28.8333,-217 65.1667,-217 65.1667,-217 70.8333,-217 76.5,-222.6667 76.5,-228.3333 76.5,-228.3333 76.5,-239.6667 76.5,-239.6667 76.5,-245.3333 70.8333,-251 65.1667,-251 65.1667,-251 28.8333,-251 28.8333,-251 23.1667,-251 17.5,-245.3333 17.5,-239.6667 17.5,-239.6667 17.5,-228.3333 17.5,-228.3333 17.5,-222.6667 23.1667,-217 28.8333,-217"/>
</g>
<!-- SHK_WR&#45;&gt;DELAY -->
<g id="edge4" class="edge transition">
<title>SHK_WR&#45;&gt;DELAY</title>
<path fill="none" stroke="#000000" d="M65.7441,-321.9631C61.7271,-316.8364 57.9021,-311.0041 55.415,-305 49.8675,-291.6079 47.6301,-275.6592 46.8373,-262.2733"/>
<polygon fill="#000000" stroke="#000000" points="50.3318,-262.0534 46.4755,-252.1853 43.3363,-262.3044 50.3318,-262.0534"/>
<text text-anchor="start" x="55" y="-290" font-family="Helvetica,sans-Serif" font-size="10.00" fill="#000000">1 &#160;&#160;</text>
<text text-anchor="start" x="55" y="-278" font-family="Helvetica,sans-Serif" font-size="10.00" fill="#000000">m_shk0_hp_ready &#160;&#160;</text>
</g>
<!-- SWITCH -->
<g id="node6" class="node state regular">
<title>SWITCH</title>
<polygon fill="#ffffff" fill-opacity="0.003922" stroke="transparent" stroke-width="2" points="121.5,-158 52.5,-158 52.5,-122 121.5,-122 121.5,-158"/>
<text text-anchor="start" x="63.8396" y="-136.2" font-family="Helvetica,sans-Serif" font-size="12.00" fill="#000000">SWITCH</text>
<path fill="none" stroke="#000000" stroke-width="2" d="M64.8333,-123C64.8333,-123 109.1667,-123 109.1667,-123 114.8333,-123 120.5,-128.6667 120.5,-134.3333 120.5,-134.3333 120.5,-145.6667 120.5,-145.6667 120.5,-151.3333 114.8333,-157 109.1667,-157 109.1667,-157 64.8333,-157 64.8333,-157 59.1667,-157 53.5,-151.3333 53.5,-145.6667 53.5,-145.6667 53.5,-134.3333 53.5,-134.3333 53.5,-128.6667 59.1667,-123 64.8333,-123"/>
</g>
<!-- DELAY&#45;&gt;SWITCH -->
<g id="edge5" class="edge transition">
<title>DELAY&#45;&gt;SWITCH</title>
<path fill="none" stroke="#000000" d="M46.8688,-215.928C47.4181,-203.832 49.406,-187.8375 55.417,-175 56.84,-171.961 58.6173,-168.9976 60.5989,-166.1637"/>
<polygon fill="#000000" stroke="#000000" points="63.5232,-168.1095 67.0067,-158.1037 58.0438,-163.7533 63.5232,-168.1095"/>
<text text-anchor="start" x="55" y="-190" font-family="Helvetica,sans-Serif" font-size="10.00" fill="#000000">1 &#160;&#160;</text>
<text text-anchor="start" x="55" y="-178" font-family="Helvetica,sans-Serif" font-size="10.00" fill="#000000">r_wr_delay_cnt == NB_WR_DELAY &#45; 1&#39;b1 &#160;&#160;</text>
</g>
<!-- SWITCH&#45;&gt;START -->
<g id="edge7" class="edge transition">
<title>SWITCH&#45;&gt;START</title>
<path fill="none" stroke="#000000" d="M121.6314,-142.3471C165.095,-146.0974 235.917,-155.1476 252,-175 258.7145,-183.2882 255.7754,-189.0238 252,-199 230.1173,-256.824 173,-251.6739 173,-313.5 173,-381 173,-381 173,-381 173,-387.4409 175.5549,-393.1584 179.4333,-398.1271"/>
<polygon fill="#000000" stroke="#000000" points="176.9539,-400.5978 186.4405,-405.3151 181.9662,-395.7114 176.9539,-400.5978"/>
<text text-anchor="start" x="188" y="-296" font-family="Helvetica,sans-Serif" font-size="10.00" fill="#000000">not (r_shk0_hp_maddr == w_frame_start_addr &#160;&#160;&#160;</text>
<text text-anchor="start" x="188" y="-284" font-family="Helvetica,sans-Serif" font-size="10.00" fill="#000000">+ NB_SHK0_ONCE * (NB_FRAME_ALLS &#45; 1)) &#160;&#160;</text>
<text text-anchor="start" x="188" y="-272" font-family="Helvetica,sans-Serif" font-size="10.00" fill="#000000">1 &#160;&#160;</text>
</g>
<!-- SWITCH&#45;&gt;OVER -->
<g id="edge6" class="edge transition">
<title>SWITCH&#45;&gt;OVER</title>
<path fill="none" stroke="#000000" d="M86.1305,-121.8016C86.4143,-105.5651 89.6169,-82.3539 104.029,-69 129.5161,-45.3843 228.2414,-37.6636 283.6764,-35.1687"/>
<polygon fill="#000000" stroke="#000000" points="283.9774,-38.6593 293.824,-34.7486 283.6877,-31.6653 283.9774,-38.6593"/>
<text text-anchor="start" x="104" y="-96" font-family="Helvetica,sans-Serif" font-size="10.00" fill="#000000">r_shk0_hp_maddr == w_frame_start_addr &#160;&#160;&#160;</text>
<text text-anchor="start" x="104" y="-84" font-family="Helvetica,sans-Serif" font-size="10.00" fill="#000000">+ NB_SHK0_ONCE * (NB_FRAME_ALLS &#45; 1) &#160;&#160;</text>
<text text-anchor="start" x="104" y="-72" font-family="Helvetica,sans-Serif" font-size="10.00" fill="#000000">1 &#160;&#160;</text>
</g>
<!-- OVER&#45;&gt;IDLE -->
<g id="edge8" class="edge transition">
<title>OVER&#45;&gt;IDLE</title>
<path fill="none" stroke="#000000" d="M350.1503,-38.3318C392.5762,-45.6654 468,-62.1916 468,-87 468,-207.5 468,-207.5 468,-207.5 468,-254.7806 459,-266.2194 459,-313.5 459,-469 459,-469 459,-469 459,-472.6052 370.9654,-494.269 318.3725,-506.8896"/>
<polygon fill="#000000" stroke="#000000" points="317.2738,-503.5536 308.3631,-509.2851 318.9031,-510.3613 317.2738,-503.5536"/>
<text text-anchor="start" x="462" y="-284" font-family="Helvetica,sans-Serif" font-size="10.00" fill="#000000">1 &#160;&#160;</text>
</g>
</g>
</svg>
